<svg width="328" height="284" viewBox="0 0 328 284" fill="none" xmlns="http://www.w3.org/2000/svg">
<path d="M325.335 21.1304H3.13753C2.24405 21.1976 1.34553 21.1289 0.472656 20.9267V0.218832C1.34703 0.0265776 2.24446 -0.0392869 3.13753 0.0232462H325.335C326.228 -0.0399662 327.126 0.0259054 328 0.218832V20.9429C327.126 21.1405 326.228 21.2037 325.335 21.1304Z" fill="#333333"/>
<mask id="mask0_85_168" style="mask-type:alpha" maskUnits="userSpaceOnUse" x="0" y="21" width="328" height="262">
<path d="M327.527 277.039C327.527 279.799 325.291 282.037 322.53 282.039L5.01218 282.236C2.246 282.238 0.00406784 279.994 0.00907778 277.227L0.463638 26.2485C0.46863 23.4919 2.70377 21.2593 5.46039 21.2575L322.524 21.0521C325.287 21.0503 327.527 23.2894 327.527 26.0521V277.039Z" fill="white"/>
</mask>
<g mask="url(#mask0_85_168)">
<path d="M164 365C281.637 365 377 269.637 377 152C377 34.3634 281.637 -61 164 -61C46.3634 -61 -49 34.3634 -49 152C-49 269.637 46.3634 365 164 365Z" fill="#0099F5"/>
<path d="M-8.25105 53.7696C-8.33828 53.8732 -8.41823 53.9646 -8.51124 54.0631C-10.555 56.2275 -36.8101 84.7551 -36.8101 121.872C-36.8101 160.493 -33.1575 161.221 -25.8749 165.568C-18.5923 169.915 -2.55931 168.481 -2.55931 181.601C-2.55931 194.721 8.37583 212.21 20.028 231.885C31.6802 251.559 57.9201 298.919 70.3118 287.983C82.7034 277.048 87.8013 244.994 76.1379 223.863C64.4745 202.732 75.4096 193.242 88.5295 171.753C101.649 150.263 100.182 142.252 84.16 139.339C68.1382 136.426 59.3766 84.7085 48.4527 73.7846C37.5287 62.8606 15.6585 70.1321 9.83236 62.1212C4.04288 54.1606 -1.18236 45.3703 -8.25105 53.7696Z" fill="#69E0A2"/>
<path d="M92.5505 80.6764C91.0194 77.211 94.7314 75.8162 97.68 78.1952C104.854 83.9837 117.74 92.1919 133.491 92.5961C157.939 93.2236 154.163 112.651 164.863 133.334C175.563 154.017 176.145 156.526 183.036 150.88C189.926 145.233 188.055 127.071 198.083 117.043C208.11 107.016 222.911 110.769 233.174 124.561C243.437 138.353 256.982 156.101 262.629 153.49C268.276 150.88 278.315 136.471 272.029 127.071C265.744 117.671 254.697 107.643 274.024 105.783C293.351 103.923 298.348 77.5827 286.438 65.6728C274.528 53.7629 302.123 35.59 285.183 19.2993C268.242 3.00865 292.712 -18.9289 275.783 -25.8194C258.853 -32.7098 208.065 -28.3515 183.618 -37.7517C159.171 -47.1518 152.247 -40.2614 127.217 -32.7322C102.187 -25.2031 92.1261 -36.4968 78.3339 -33.3597C64.5417 -30.2225 41.988 -18.9513 40.7331 -5.78653C39.4783 7.37822 22.5602 3.61366 13.8434 16.7672C5.1267 29.9207 -9.83069 39.0744 -8.32935 53.931C-6.82801 68.7876 12.5886 56.3735 11.9612 50.3569C11.3337 44.3403 10.7175 34.9402 21.3614 33.6965C32.0052 32.4529 26.3808 38.7047 34.5261 44.3403C42.6714 49.976 62.0992 42.839 62.0992 53.931C62.0992 65.023 57.472 69.9976 48.5087 73.7846C42.6729 76.2502 44.8828 81.6226 47.1354 85.0715C48.4085 87.0205 50.9967 87.3141 53.2727 86.8251C55.7167 86.3001 58.8263 86.4341 60.8444 89.4702C64.5977 95.1171 72.7543 128.942 85.919 131.452C99.0838 133.961 125.357 105.761 115.274 102.635C107.755 100.304 96.4995 89.6146 92.5505 80.6764Z" fill="#69E0A2"/>
<path d="M255.734 257.376C255.722 257.397 255.722 257.398 255.71 257.418C255.326 258.075 237.731 288.231 240.546 291.412C243.392 294.627 270.875 276.712 270.875 285.44C270.875 294.168 264.444 306.123 284.208 294.639C303.972 283.154 318.672 269.822 325.103 247.302C331.534 224.781 332.464 219.291 325.103 226.619C317.742 233.946 322.862 219.583 312.241 223.56C301.619 227.538 289.127 242.753 278.236 246.383C265.845 250.521 259.001 251.645 255.734 257.376Z" fill="#69E0A2"/>
<path d="M234.26 163.202C233.219 164.359 234.078 166.147 235.091 167.329C239.117 172.025 242.106 177.529 243.851 183.483C247.089 194.631 251.044 204.345 255.727 204.345C260.411 204.345 265.811 196.794 260.041 188.872C254.271 180.951 254.282 178.442 255.369 177.366C256.456 176.29 257.565 167.618 251.403 160.1C245.24 152.583 244.579 152.549 244.579 147.518C244.579 143.886 243.826 136.873 243.407 133.254C243.256 131.948 242.147 130.97 240.832 130.97V130.97C239.291 130.97 238.09 132.293 238.265 133.824C238.992 140.188 240.953 155.098 243.493 156.504C246.73 158.297 252.568 174.856 247.974 174.43C243.945 174.057 236.898 160.27 234.26 163.202Z" fill="#69E0A2"/>
<path d="M270.11 179.081C270.111 179.14 270.114 179.19 270.116 179.249C270.152 180.368 270.633 192.972 274.069 196.065C277.665 199.303 285.194 201.264 287.614 197.869C290.034 194.474 299.009 182.284 297.552 179.17C296.096 176.055 293.194 172.895 296.096 169.501C298.998 166.106 295.076 159.316 292.802 159.551C290.527 159.787 289.441 166.588 285.261 169.501C281.116 172.39 270.072 175.489 270.11 179.081Z" fill="#69E0A2"/>
<path d="M259.864 206.302C258.243 207.364 259.948 209.415 261.818 209.924C266.153 211.105 274.315 213.229 281.071 214.406C290.774 216.098 307.255 216.356 305.317 212.961C303.378 209.566 288.824 212.435 279.85 209.073C272.776 206.424 263.148 204.151 259.864 206.302Z" fill="#69E0A2"/>
<path d="M304.433 187.704C304.217 187.684 304.002 187.668 303.787 187.642C302.514 187.49 297.81 187.113 296.342 189.623C294.639 192.536 290.953 200.289 292.802 202.956C294.651 205.623 297.631 195.203 298.202 197.869C298.774 200.536 301.194 207.561 302.404 201.746C303.614 195.931 302.404 193.264 304.107 192.043C305.753 190.862 307.442 187.985 304.433 187.704Z" fill="#69E0A2"/>
<path d="M301.16 181.609C301.057 182.682 302.733 182.765 303.796 182.589C306.431 182.153 311.388 181.139 312.106 179.596C312.948 177.787 301.38 179.322 301.16 181.609Z" fill="#69E0A2"/>
<path d="M323.261 185.31C321.788 186.384 321.814 188.55 322.805 190.08C323.465 191.099 324.184 192.08 324.957 193.018C326.895 195.203 323.747 198.62 327.87 202.228C331.993 205.835 327.142 210.239 327.87 212.905C328.598 215.572 332.71 219.437 335.142 215.561C337.573 211.684 339.5 211.93 339.5 215.561C339.5 219.191 341.203 223.325 343.87 219.695C346.536 216.065 340.508 213.14 343.87 208.289C347.231 203.438 344.833 198.351 341.931 193.018C339.029 187.685 336.105 193.018 331.982 191.808C328.437 190.767 326.871 182.678 323.261 185.31Z" fill="#69E0A2"/>
</g>
<path d="M327.527 277.039C327.527 279.799 325.291 282.037 322.53 282.039L5.01218 282.236C2.246 282.238 0.00406784 279.994 0.00907778 277.227L0.463638 26.2485C0.46863 23.4919 2.70377 21.2593 5.46039 21.2575L322.524 21.0521C325.287 21.0503 327.527 23.2894 327.527 26.0521V277.039Z" fill="#ECECEC" fill-opacity="0.85"/>
<path d="M45.8896 10.642C45.8896 11.5285 45.6267 12.3951 45.1342 13.1322C44.6417 13.8693 43.9417 14.4438 43.1227 14.783C42.3036 15.1223 41.4024 15.211 40.5329 15.0381C39.6635 14.8651 38.8648 14.4383 38.238 13.8114C37.6111 13.1846 37.1842 12.3859 37.0113 11.5164C36.8384 10.647 36.9271 9.74575 37.2664 8.92673C37.6056 8.10772 38.1801 7.40769 38.9172 6.91518C39.6543 6.42267 40.5209 6.15979 41.4074 6.15979C42.5961 6.15979 43.7362 6.63202 44.5768 7.4726C45.4174 8.31318 45.8896 9.45324 45.8896 10.642Z" fill="#69E0A2"/>
<path d="M18.7193 10.642C18.7193 11.5285 18.4564 12.3951 17.9639 13.1322C17.4714 13.8693 16.7714 14.4438 15.9524 14.783C15.1333 15.1223 14.2321 15.211 13.3627 15.0381C12.4932 14.8651 11.6945 14.4383 11.0677 13.8114C10.4408 13.1846 10.014 12.3859 9.84101 11.5164C9.66806 10.647 9.75682 9.74575 10.0961 8.92673C10.4353 8.10772 11.0098 7.40769 11.7469 6.91518C12.484 6.42267 13.3506 6.15979 14.2371 6.15979C15.4259 6.15979 16.5659 6.63202 17.4065 7.4726C18.2471 8.31318 18.7193 9.45324 18.7193 10.642Z" fill="#EA724F"/>
<path d="M31.7585 10.642C31.7585 11.5285 31.4956 12.3951 31.0031 13.1322C30.5106 13.8693 29.8106 14.4438 28.9916 14.783C28.1725 15.1223 27.2713 15.211 26.4018 15.0381C25.5324 14.8651 24.7337 14.4383 24.1069 13.8114C23.48 13.1846 23.0531 12.3859 22.8802 11.5164C22.7072 10.647 22.796 9.74575 23.1353 8.92673C23.4745 8.10772 24.049 7.40769 24.7861 6.91518C25.5232 6.42267 26.3898 6.15979 27.2763 6.15979C28.465 6.15979 29.6051 6.63202 30.4457 7.4726C31.2863 8.31318 31.7585 9.45324 31.7585 10.642Z" fill="#FFD44D"/>
<path d="M133.065 144.139V137.187H139.144V144.139H143.708V149.949H139.144V159.508H133.065V149.949H116.766V144.302L130.726 121.564H137.734L123.994 144.139H133.065Z" fill="#EA724F"/>
<path d="M152.884 154.594C150.32 151.047 149.035 146.285 149.029 140.308C149.024 134.332 150.309 129.562 152.884 125.998C155.459 122.428 159.336 120.644 164.513 120.644C169.691 120.644 173.565 122.428 176.135 125.998C178.704 129.562 179.989 134.332 179.989 140.308C179.989 146.285 178.704 151.055 176.135 154.619C173.559 158.188 169.686 159.973 164.513 159.973C159.341 159.973 155.465 158.18 152.884 154.594ZM157.48 130.016C155.976 132.623 155.223 136.046 155.223 140.284C155.223 144.522 155.976 147.944 157.48 150.552C158.165 151.801 159.188 152.83 160.433 153.52C161.677 154.211 163.092 154.536 164.513 154.456C165.925 154.541 167.331 154.221 168.567 153.533C169.803 152.846 170.817 151.82 171.489 150.577C172.956 147.985 173.69 144.554 173.69 140.284C173.69 136.014 172.956 132.583 171.489 129.991C170.817 128.746 169.804 127.719 168.568 127.031C167.332 126.342 165.926 126.021 164.513 126.104C163.091 126.026 161.677 126.352 160.432 127.044C159.187 127.736 158.164 128.766 157.48 130.016Z" fill="#EA724F"/>
<path d="M201.496 144.139V137.187H207.6V144.139H212.163V149.949H207.6V159.508H201.512V149.949H185.213V144.302L199.165 121.564H206.174L192.425 144.139H201.496Z" fill="#EA724F"/>
<path d="M327.527 282.036L248.103 126.104C248.103 126.104 236.954 173.371 225.406 186.198C213.859 199.025 180.486 219.562 159.958 218.282C139.429 217.003 107.981 200.093 107.981 200.093L34.1545 282.036H327.527Z" fill="#C3C7C9" fill-opacity="0.3"/>
<path d="M115.412 199.246L106.129 189.962C105.174 189.007 103.626 189.007 102.671 189.962L23.926 268.707C22.9713 269.662 22.9713 271.21 23.926 272.165L33.2095 281.448C34.1643 282.403 35.7123 282.403 36.667 281.448L115.412 202.703C116.367 201.748 116.367 200.2 115.412 199.246Z" fill="#0099F5"/>
<path d="M117.141 200.966L104.4 188.225L78.8255 213.8L91.5665 226.541L117.141 200.966Z" fill="#0086F4"/>
<path d="M224.412 80.9557C212.432 68.9763 197.169 60.8183 180.553 57.5133C163.937 54.2083 146.714 55.9047 131.062 62.3881C115.41 68.8716 102.032 79.8507 92.6196 93.9372C83.2074 108.024 78.1836 124.585 78.1836 141.527C78.1836 158.468 83.2074 175.03 92.6196 189.116C102.032 203.203 115.41 214.182 131.062 220.665C146.714 227.149 163.937 228.845 180.553 225.54C197.169 222.235 212.432 214.077 224.412 202.098C232.366 194.143 238.676 184.7 242.981 174.308C247.286 163.915 249.502 152.776 249.502 141.527C249.502 130.278 247.286 119.139 242.981 108.746C238.676 98.353 232.366 88.9099 224.412 80.9557ZM209.922 188.235C200.746 197.411 189.055 203.66 176.328 206.191C163.601 208.723 150.409 207.423 138.42 202.457C126.431 197.491 116.184 189.082 108.975 178.292C101.765 167.502 97.9173 154.817 97.9173 141.84C97.9173 128.864 101.765 116.179 108.975 105.389C116.184 94.5991 126.431 86.1896 138.42 81.2235C150.409 76.2575 163.601 74.9581 176.328 77.4895C189.055 80.021 200.746 86.2697 209.922 95.4454C216.015 101.538 220.848 108.771 224.146 116.732C227.443 124.692 229.14 133.224 229.14 141.84C229.14 150.457 227.443 158.989 224.146 166.949C220.848 174.91 216.015 182.143 209.922 188.235Z" fill="#0099F5"/>
</svg>
