<svg width="247" height="240" viewBox="0 0 247 240" fill="none" xmlns="http://www.w3.org/2000/svg">
<path d="M123.5 240C191.707 240 247 229.255 247 216C247 202.745 191.707 192 123.5 192C55.2928 192 0 202.745 0 216C0 229.255 55.2928 240 123.5 240Z" fill="#0099F5"/>
<path d="M23.549 204.95C23.549 204.95 7.06799 208.254 7.06799 212.605C7.06799 216.957 9.18576 217.039 13.4083 217.529C17.6309 218.019 26.927 217.857 26.927 219.335C26.927 220.814 33.2673 222.784 40.0234 225.001C46.7795 227.218 61.9937 232.554 69.1785 231.322C76.3634 230.09 79.3192 226.478 72.5566 224.097C65.794 221.716 72.1343 220.647 79.7414 218.226C87.3485 215.804 86.4975 214.902 77.2079 214.573C67.9183 214.245 62.8382 208.418 56.5044 207.187C50.1705 205.956 37.4899 206.775 34.1118 205.873C30.7338 204.97 27.6871 203.973 23.549 204.95Z" fill="#69E0A2"/>
<path d="M81.4629 207.047C81.4629 207.047 91.636 209.236 105.811 209.307C119.986 209.377 117.796 211.566 124 213.897C130.204 216.227 130.542 216.51 134.537 215.874C138.532 215.237 137.447 213.191 143.262 212.061C149.076 210.931 157.657 211.354 163.608 212.908C169.558 214.462 177.412 216.462 180.686 216.168C183.961 215.874 189.781 214.25 186.137 213.191C182.492 212.132 176.087 211.002 187.293 210.792C198.499 210.583 201.396 207.615 194.491 206.273C187.585 204.931 203.586 202.883 193.763 201.048C183.941 199.212 198.129 196.74 188.313 195.964C178.497 195.188 149.05 195.679 134.875 194.62C120.7 193.56 116.685 194.337 102.173 195.185C87.6603 196.033 81.8267 194.761 73.8298 195.114C65.8329 195.468 52.756 196.738 52.0284 198.221C51.3008 199.705 41.4915 199.28 36.4374 200.763C31.3834 202.245 22.7109 203.276 23.5814 204.95C24.4519 206.624 35.7099 205.225 35.3461 204.547C34.9823 203.869 34.625 202.81 40.7964 202.67C46.9678 202.53 43.7067 203.234 48.4295 203.869C53.1523 204.504 64.4167 203.7 64.4167 204.95C64.4167 206.2 61.7338 206.76 56.5368 207.187C51.3398 207.614 57.1474 208.813 57.1474 208.813C57.1474 208.813 61.5129 208.318 63.6892 208.954C65.8654 209.591 70.5947 213.402 78.2277 213.685C85.8608 213.967 101.095 210.79 95.2479 210.438C89.4013 210.086 79.6569 208.039 81.4629 207.047Z" fill="#69E0A2"/>
<path d="M176.678 227.877C176.678 227.877 166.232 231.346 167.882 231.708C169.532 232.071 185.468 230.052 185.468 231.036C185.468 232.019 181.739 233.366 193.198 232.072C204.658 230.778 213.181 229.276 216.909 226.738C220.638 224.201 221.177 223.582 216.909 224.408C212.641 225.233 215.61 223.615 209.452 224.063C203.293 224.511 196.05 226.226 189.736 226.635C182.538 227.102 178.569 227.228 176.678 227.877Z" fill="#69E0A2"/>
<path d="M163.757 217.521C166.58 218.092 168.653 218.787 169.799 219.547C171.676 220.804 173.969 221.898 176.685 221.898C179.4 221.898 182.531 221.047 179.186 220.155C175.84 219.262 175.847 218.979 176.477 218.858C177.107 218.737 177.75 217.76 174.177 216.913C170.604 216.066 170.221 216.062 170.221 215.495C170.221 214.928 169.383 213.63 169.383 213.63H166.382C166.382 213.63 167.713 216.306 169.591 216.507C171.468 216.709 174.853 218.575 172.189 218.527C169.526 218.479 164.589 216.467 163.757 217.521Z" fill="#69E0A2"/>
<path d="M185.026 219.061C185.026 219.061 185.234 220.6 187.319 220.965C189.404 221.33 193.77 221.551 195.173 221.168C196.576 220.786 201.78 219.412 200.935 219.061C200.091 218.71 198.408 218.354 200.091 217.972C201.773 217.589 199.5 216.824 198.181 216.851C196.862 216.877 196.232 217.644 193.809 217.972C191.386 218.3 184.896 218.652 185.026 219.061Z" fill="#69E0A2"/>
<path d="M178.445 222.431C178.445 222.431 185.754 222.841 191.379 223.032C197.005 223.222 206.561 223.251 205.437 222.869C204.313 222.486 195.875 222.81 190.671 222.431C185.468 222.052 177.88 221.742 178.445 222.431Z" fill="#69E0A2"/>
<path d="M204.736 220.021C204.736 220.021 201.221 219.911 200.234 220.239C199.246 220.567 197.109 221.441 198.181 221.742C199.253 222.042 200.981 220.868 201.312 221.168C201.643 221.469 203.046 222.26 203.748 221.605C204.45 220.95 203.748 220.65 204.736 220.512C205.723 220.374 206.736 220.032 204.736 220.021Z" fill="#69E0A2"/>
<path d="M203.605 219.474C203.605 219.474 208.802 219.348 209.374 219.109C209.945 218.871 200.656 219.148 203.605 219.474Z" fill="#69E0A2"/>
<path d="M214.714 220.003C215.305 220.223 216.013 220.43 216.825 220.622C217.949 220.868 216.124 221.253 218.514 221.659C220.905 222.066 218.092 222.562 218.514 222.863C218.936 223.163 221.321 223.599 222.73 223.162C224.14 222.725 225.257 222.753 225.257 223.162C225.257 223.571 226.245 224.037 227.791 223.628C229.337 223.219 225.842 222.889 227.791 222.342C229.74 221.796 228.349 221.223 226.667 220.622C224.984 220.021 223.289 220.622 220.898 220.485C218.508 220.349 217.67 219.138 214.714 220.003Z" fill="#69E0A2"/>
<path d="M123.5 240C191.707 240 247 229.255 247 216C247 202.745 191.707 192 123.5 192C55.2928 192 0 202.745 0 216C0 229.255 55.2928 240 123.5 240Z" fill="white" fill-opacity="0.5"/>
<path d="M113.559 210.978L55.2576 116.528C36.6625 86.4044 41.1762 47.4099 66.1592 22.3598C95.8922 -7.45325 144.108 -7.45325 173.841 22.3598C198.824 47.4099 203.338 86.3988 184.742 116.528L126.441 210.978C123.475 215.78 116.513 215.78 113.547 210.978H113.559Z" fill="#EA724F"/>
<path opacity="0.09" d="M123.419 199.788L65.118 105.337C48.684 78.7127 50.3161 45.1639 68.1627 20.4298C67.4874 21.0618 66.8176 21.6995 66.1592 22.3598C41.1762 47.4099 36.6625 86.4044 55.2576 116.528L113.559 210.978C116.525 215.78 123.487 215.78 126.453 210.978L131.22 203.252C128.321 203.772 125.175 202.626 123.419 199.788Z" fill="#333333"/>
<path d="M120.003 122.069C145.186 122.069 165.601 101.599 165.601 76.3483C165.601 51.0971 145.186 30.6271 120.003 30.6271C94.8194 30.6271 74.4042 51.0971 74.4042 76.3483C74.4042 101.599 94.8194 122.069 120.003 122.069Z" fill="white"/>
<path opacity="0.09" d="M164.099 64.7004C164.498 66.9972 164.718 69.3617 164.718 71.7713C164.718 94.3215 146.488 112.6 123.999 112.6C101.509 112.6 83.2796 94.3215 83.2796 71.7713C83.2796 49.2211 101.509 30.9428 123.999 30.9428C124.533 30.9428 125.068 30.9653 125.597 30.9823C112.14 29.3232 98.0927 33.6628 87.7652 44.0181C69.958 61.8731 69.958 90.8227 87.7652 108.683C105.572 126.539 134.444 126.539 152.257 108.683C164.144 96.765 168.083 79.9088 164.104 64.7004H164.099Z" fill="#333333"/>
<path d="M125.895 99.57C125.895 100.597 125.704 101.562 125.316 102.465C124.927 103.368 124.404 104.152 123.74 104.818C123.076 105.484 122.299 106.009 121.415 106.398C120.532 106.788 119.592 106.98 118.596 106.98H115.619C114.566 106.98 113.592 106.788 112.692 106.398C111.791 106.009 111.009 105.484 110.345 104.818C109.681 104.152 109.163 103.368 108.792 102.465C108.42 101.568 108.229 100.603 108.229 99.57C108.229 98.5373 108.415 97.578 108.792 96.675C109.163 95.7778 109.687 94.9821 110.345 94.3049C111.004 93.6277 111.791 93.0916 112.692 92.7022C113.587 92.3129 114.566 92.121 115.619 92.121H118.596C119.592 92.121 120.532 92.3129 121.415 92.7022C122.299 93.0916 123.076 93.6277 123.74 94.3049C124.404 94.9877 124.927 95.7721 125.316 96.675C125.704 97.578 125.895 98.5429 125.895 99.57ZM137.394 54.8589C136.516 52.8782 135.317 51.2022 133.797 49.8421C132.278 48.4821 130.494 47.4494 128.445 46.7553C126.396 46.0612 124.196 45.717 121.849 45.717H118.872C116.35 45.717 114.026 46.0443 111.887 46.7045C109.749 47.3648 107.897 48.358 106.327 49.6954C104.756 51.0329 103.524 52.7145 102.618 54.7292C101.937 56.2472 101.503 57.9683 101.306 59.887C101.194 60.9649 101.999 61.9242 103.074 62.0315L110.964 62.8046C111.336 62.8384 113.941 62.8046 113.941 62.8046C114.983 62.9061 115.922 62.1725 116.074 61.1342C116.142 60.6545 116.249 60.2256 116.378 59.8419C116.66 59.0236 117.054 58.3803 117.543 57.9119C118.033 57.4435 118.613 57.1219 119.266 56.9469C119.389 56.9131 119.513 56.8849 119.643 56.8623C120.324 57.0711 120.898 57.4717 121.37 58.0643C122.096 58.9841 122.462 60.1692 122.462 61.6308C122.462 62.6466 122.372 63.5608 122.203 64.379C122.035 65.1973 121.731 65.993 121.314 66.7548C120.898 67.5223 120.312 68.2954 119.575 69.0798C118.849 69.8473 117.932 70.6881 116.823 71.608C116.784 71.6418 116.739 71.6757 116.694 71.7039C115.658 72.4319 114.78 73.1147 114.054 73.758C113.311 74.4183 112.686 75.0898 112.18 75.7839C111.673 76.478 111.262 77.2286 110.953 78.0356C110.643 78.8425 110.413 79.7567 110.249 80.7838C110.086 81.8109 109.985 82.9846 109.934 84.2939C109.906 85.0726 109.884 85.936 109.872 86.8672C109.861 87.9676 110.739 88.8649 111.837 88.8649H122.502C123.549 88.8649 124.421 88.041 124.472 86.9857C124.522 85.9304 124.612 84.9936 124.747 84.181C124.956 82.9169 125.321 81.8052 125.839 80.8346C126.357 79.8696 127.049 78.978 127.916 78.1597C128.783 77.3415 129.869 76.4611 131.175 75.5187C133.718 73.5097 135.609 71.3822 136.848 69.1306C138.08 66.879 138.699 64.396 138.699 61.6985C138.699 59.0011 138.26 56.8397 137.382 54.8589H137.394Z" fill="#BD6248"/>
<path d="M122.338 96.675C122.727 97.578 122.918 98.5429 122.918 99.57C122.918 100.597 122.727 101.562 122.338 102.465C121.95 103.368 121.427 104.152 120.763 104.818C120.098 105.484 119.322 106.009 118.438 106.398C117.555 106.788 116.615 106.98 115.618 106.98C114.566 106.98 113.592 106.788 112.692 106.398C111.791 106.009 111.009 105.484 110.345 104.818C109.681 104.152 109.163 103.368 108.792 102.465C108.42 101.568 108.229 100.603 108.229 99.57C108.229 98.5373 108.415 97.578 108.792 96.675C109.163 95.7778 109.686 94.9821 110.345 94.3049C111.003 93.6277 111.791 93.0916 112.692 92.7022C113.587 92.3129 114.566 92.121 115.618 92.121C116.615 92.121 117.555 92.3129 118.438 92.7022C119.322 93.0916 120.098 93.6277 120.763 94.3049C121.427 94.9877 121.95 95.7721 122.338 96.675ZM134.422 54.8589C133.544 52.8782 132.345 51.2022 130.825 49.8421C129.306 48.4821 127.522 47.4494 125.473 46.7553C123.425 46.0612 121.224 45.717 118.877 45.717C116.356 45.717 114.031 46.0443 111.893 46.7045C109.754 47.3648 107.902 48.358 106.332 49.6954C104.762 51.0329 103.529 52.7145 102.623 54.7292C101.942 56.2472 101.509 57.9683 101.312 59.887C101.199 60.9649 102.004 61.9242 103.079 62.0315L110.97 62.8046C112.011 62.9061 112.951 62.1725 113.103 61.1342C113.17 60.6545 113.277 60.2256 113.407 59.8419C113.688 59.0236 114.082 58.3803 114.572 57.9119C115.061 57.4435 115.641 57.1219 116.294 56.9469C116.947 56.772 117.661 56.6873 118.427 56.6873C119.659 56.6873 120.644 57.1444 121.376 58.0643C122.102 58.9841 122.468 60.1692 122.468 61.6308C122.468 62.6466 122.378 63.5608 122.209 64.379C122.04 65.1973 121.736 65.993 121.32 66.7548C120.903 67.5223 120.318 68.2954 119.581 69.0798C118.855 69.8473 117.937 70.6881 116.828 71.608C116.789 71.6418 116.744 71.6757 116.699 71.7039C115.663 72.4319 114.785 73.1147 114.059 73.758C113.317 74.4183 112.692 75.0898 112.185 75.7839C111.679 76.478 111.268 77.2286 110.958 78.0356C110.649 78.8425 110.418 79.7567 110.255 80.7838C110.092 81.8109 109.99 82.9846 109.94 84.2939C109.912 85.0726 109.889 85.936 109.878 86.8672C109.867 87.9676 110.745 88.8649 111.842 88.8649H119.536C120.582 88.8649 121.455 88.041 121.505 86.9857C121.556 85.9304 121.646 84.9936 121.781 84.181C121.989 82.9169 122.355 81.8052 122.873 80.8346C123.391 79.864 124.083 78.978 124.95 78.1597C125.817 77.3415 126.903 76.4611 128.208 75.5187C130.752 73.5097 132.643 71.3822 133.882 69.1306C135.114 66.879 135.733 64.396 135.733 61.6985C135.733 59.0011 135.294 56.8397 134.416 54.8589H134.422Z" fill="#EA724F"/>
<path d="M189.009 207.691C188.495 208.58 187.847 209.32 187.059 209.908C186.271 210.496 185.426 210.913 184.518 211.158C183.61 211.403 182.675 211.469 181.715 211.364C180.755 211.26 179.845 210.956 178.982 210.458L176.404 208.969C175.492 208.443 174.745 207.79 174.16 207.003C173.575 206.215 173.16 205.369 172.917 204.461C172.675 203.552 172.619 202.614 172.749 201.646C172.876 200.683 173.193 199.752 173.709 198.858C174.225 197.963 174.866 197.225 175.644 196.632C176.414 196.041 177.265 195.613 178.174 195.356C179.083 195.099 180.033 195.028 181.008 195.141C181.978 195.252 182.922 195.575 183.833 196.101L186.411 197.59C187.274 198.088 187.992 198.724 188.563 199.503C189.133 200.282 189.538 201.135 189.774 202.053C190.008 202.977 190.069 203.918 189.954 204.894C189.839 205.87 189.522 206.801 189.009 207.691ZM221.322 174.719C221.552 172.565 221.352 170.514 220.716 168.576C220.08 166.639 219.051 164.852 217.624 163.227C216.197 161.601 214.463 160.203 212.431 159.029L209.852 157.541C207.669 156.28 205.492 155.401 203.31 154.904C201.127 154.406 199.027 154.341 196.999 154.714C194.97 155.087 193.062 155.927 191.27 157.219C189.921 158.193 188.685 159.467 187.555 161.03C186.919 161.907 187.136 163.14 188.014 163.771L194.46 168.385C194.765 168.6 197.039 169.874 197.039 169.874C197.89 170.483 199.07 170.317 199.721 169.494C200.02 169.112 200.327 168.794 200.631 168.527C201.283 167.959 201.946 167.599 202.604 167.438C203.263 167.277 203.926 167.288 204.578 167.463C204.703 167.496 204.824 167.533 204.947 167.578C205.433 168.1 205.729 168.734 205.843 169.483C206.011 170.643 205.736 171.852 205.005 173.118C204.497 173.998 203.962 174.744 203.407 175.369C202.851 175.993 202.19 176.53 201.449 176.981C200.704 177.438 199.811 177.815 198.78 178.125C197.768 178.427 196.553 178.697 195.133 178.939C195.082 178.948 195.026 178.955 194.973 178.957C193.712 179.07 192.61 179.222 191.66 179.416C190.686 179.617 189.809 179.886 189.024 180.234C188.238 180.582 187.507 181.026 186.835 181.57C186.164 182.114 185.507 182.791 184.852 183.598C184.197 184.406 183.522 185.372 182.824 186.481C182.41 187.141 181.959 187.878 181.484 188.678C180.924 189.626 181.235 190.842 182.186 191.39L191.422 196.723C192.329 197.246 193.496 196.969 194.068 196.081C194.639 195.192 195.185 194.426 195.709 193.79C196.521 192.799 197.394 192.019 198.327 191.437C199.258 190.861 200.304 190.434 201.463 190.159C202.623 189.884 204.004 189.665 205.606 189.501C208.814 189.033 211.515 188.137 213.713 186.806C215.906 185.472 217.684 183.631 219.033 181.295C220.381 178.959 221.082 176.868 221.312 174.713L221.322 174.719Z" fill="#6678C0"/>
<path d="M187.375 203.405C187.26 204.381 186.944 205.313 186.43 206.202C185.917 207.092 185.268 207.832 184.481 208.419C183.693 209.007 182.847 209.425 181.939 209.669C181.031 209.914 180.096 209.98 179.136 209.876C178.176 209.771 177.266 209.467 176.404 208.969C175.492 208.443 174.745 207.79 174.16 207.002C173.575 206.215 173.16 205.369 172.917 204.461C172.675 203.552 172.619 202.614 172.749 201.646C172.876 200.683 173.192 199.752 173.709 198.857C174.225 197.963 174.866 197.225 175.644 196.632C176.414 196.04 177.265 195.613 178.174 195.356C179.083 195.099 180.033 195.028 181.008 195.141C181.977 195.252 182.921 195.575 183.833 196.101C184.696 196.599 185.414 197.235 185.984 198.014C186.555 198.794 186.959 199.646 187.196 200.565C187.43 201.488 187.491 202.429 187.375 203.405ZM218.748 173.233C218.978 171.079 218.778 169.028 218.142 167.09C217.506 165.153 216.477 163.366 215.05 161.741C213.623 160.115 211.889 158.717 209.857 157.544C207.673 156.283 205.497 155.404 203.315 154.907C201.132 154.409 199.032 154.343 197.004 154.717C194.975 155.09 193.067 155.93 191.275 157.221C189.926 158.196 188.69 159.469 187.56 161.033C186.924 161.91 187.141 163.143 188.018 163.773L194.465 168.388C195.316 168.997 196.497 168.831 197.148 168.008C197.446 167.626 197.753 167.308 198.057 167.041C198.71 166.473 199.373 166.113 200.031 165.952C200.689 165.791 201.352 165.802 202.005 165.977C202.658 166.152 203.319 166.436 203.982 166.819C205.049 167.435 205.674 168.324 205.847 169.486C206.016 170.646 205.741 171.855 205.01 173.121C204.502 174 203.967 174.747 203.411 175.371C202.856 175.995 202.195 176.533 201.453 176.984C200.709 177.441 199.816 177.817 198.785 178.128C197.772 178.43 196.557 178.699 195.137 178.941C195.086 178.951 195.03 178.958 194.977 178.96C193.716 179.073 192.615 179.225 191.664 179.419C190.691 179.619 189.814 179.889 189.028 180.236C188.243 180.584 187.511 181.029 186.84 181.573C186.168 182.117 185.511 182.793 184.857 183.601C184.202 184.409 183.527 185.375 182.829 186.483C182.415 187.144 181.964 187.88 181.488 188.681C180.928 189.628 181.24 190.844 182.19 191.393L188.853 195.24C189.76 195.763 190.927 195.486 191.499 194.597C192.07 193.709 192.617 192.943 193.14 192.306C193.952 191.316 194.825 190.536 195.759 189.954C196.692 189.373 197.735 188.951 198.895 188.676C200.054 188.401 201.435 188.182 203.037 188.018C206.245 187.55 208.946 186.653 211.144 185.323C213.338 183.989 215.115 182.148 216.464 179.812C217.813 177.476 218.513 175.385 218.743 173.23L218.748 173.233Z" fill="#5876EE"/>
<path d="M51.0148 207.691C51.5283 208.58 52.1765 209.32 52.9643 209.908C53.7521 210.496 54.5975 210.913 55.5056 211.158C56.4137 211.403 57.3488 211.469 58.3087 211.364C59.2686 211.26 60.1785 210.956 61.0412 210.458L63.6196 208.969C64.531 208.443 65.2783 207.79 65.8634 207.003C66.4486 206.215 66.8637 205.369 67.1059 204.461C67.3481 203.552 67.4043 202.614 67.2745 201.646C67.1476 200.683 66.8308 199.752 66.3144 198.858C65.7981 197.963 65.1576 197.225 64.3795 196.632C63.6092 196.041 62.7581 195.613 61.8492 195.356C60.9404 195.099 59.99 195.028 59.0154 195.141C58.0458 195.252 57.1017 195.575 56.1903 196.101L53.6119 197.59C52.7492 198.088 52.0312 198.724 51.4607 199.503C50.8901 200.282 50.4855 201.135 50.249 202.053C50.0153 202.977 49.9542 203.918 50.0693 204.894C50.1845 205.87 50.5013 206.801 51.0148 207.691ZM18.7016 174.719C18.4716 172.565 18.6717 170.514 19.3077 168.576C19.9437 166.639 20.9724 164.852 22.3995 163.227C23.8266 161.601 25.5602 160.203 27.5927 159.029L30.1711 157.541C32.3547 156.28 34.5313 155.401 36.7136 154.904C38.8958 154.406 40.996 154.341 43.0246 154.714C45.0531 155.087 46.9614 155.927 48.7534 157.219C50.1022 158.193 51.3381 159.467 52.468 161.03C53.1044 161.907 52.8871 163.14 52.0098 163.771L45.5629 168.385C45.2582 168.6 42.9846 169.874 42.9846 169.874C42.1336 170.483 40.9529 170.317 40.3021 169.494C40.0038 169.112 39.6967 168.794 39.3928 168.527C38.7399 167.959 38.0771 167.599 37.4188 167.438C36.7606 167.277 36.0977 167.288 35.4449 167.463C35.3207 167.496 35.1994 167.533 35.076 167.578C34.5906 168.1 34.2938 168.734 34.1807 169.483C34.0118 170.643 34.2876 171.852 35.0184 173.118C35.5262 173.998 36.0613 174.744 36.6167 175.369C37.172 175.993 37.8331 176.53 38.5747 176.981C39.3191 177.438 40.2125 177.815 41.2432 178.125C42.2557 178.427 43.4706 178.697 44.8907 178.939C44.9418 178.948 44.9977 178.955 45.0508 178.957C46.3116 179.07 47.4134 179.222 48.3638 179.416C49.3373 179.617 50.2141 179.886 50.9998 180.234C51.7855 180.582 52.5166 181.026 53.1882 181.57C53.8597 182.114 54.5167 182.791 55.1715 183.598C55.8264 184.406 56.501 185.372 57.1995 186.481C57.6133 187.141 58.0645 187.878 58.5398 188.678C59.0997 189.626 58.788 190.842 57.8376 191.39L48.6013 196.723C47.6947 197.246 46.5273 196.969 45.9558 196.081C45.3843 195.192 44.8379 194.426 44.3146 193.79C43.5022 192.799 42.6296 192.019 41.6958 191.437C40.7649 190.861 39.7196 190.434 38.5599 190.159C37.4001 189.884 36.0193 189.665 34.4173 189.501C31.2097 189.033 28.5083 188.137 26.3102 186.806C24.117 185.472 22.3393 183.631 20.9906 181.295C19.6419 178.959 18.9414 176.868 18.7113 174.713L18.7016 174.719Z" fill="#6678C0"/>
<path d="M52.6478 203.405C52.763 204.381 53.0797 205.313 53.5933 206.202C54.1068 207.092 54.755 207.832 55.5428 208.419C56.3305 209.007 57.176 209.425 58.0841 209.669C58.9922 209.914 59.9272 209.98 60.8872 209.876C61.8471 209.771 62.757 209.467 63.6197 208.969C64.5311 208.443 65.2784 207.79 65.8636 207.002C66.4487 206.215 66.8638 205.369 67.106 204.461C67.3482 203.552 67.4044 202.614 67.2746 201.646C67.1477 200.683 66.8309 199.752 66.3145 198.857C65.7982 197.963 65.1577 197.225 64.3797 196.632C63.6093 196.04 62.7582 195.613 61.8493 195.356C60.9405 195.099 59.9901 195.028 59.0155 195.141C58.0459 195.252 57.1018 195.575 56.1904 196.101C55.3277 196.599 54.6097 197.235 54.0391 198.014C53.4686 198.794 53.064 199.646 52.8275 200.565C52.5938 201.488 52.5327 202.429 52.6478 203.405ZM21.2752 173.233C21.0452 171.079 21.2453 169.028 21.8813 167.09C22.5173 165.153 23.546 163.366 24.9731 161.741C26.4002 160.115 28.1338 158.717 30.1663 157.544C32.3499 156.283 34.5265 155.404 36.7088 154.907C38.8911 154.409 40.9912 154.343 43.0198 154.717C45.0484 155.09 46.9566 155.93 48.7487 157.221C50.0974 158.196 51.3333 159.469 52.4633 161.033C53.0997 161.91 52.8824 163.143 52.005 163.773L45.5582 168.388C44.7072 168.997 43.5265 168.831 42.8757 168.008C42.5774 167.626 42.2703 167.308 41.9664 167.041C41.3135 166.473 40.6507 166.113 39.9924 165.952C39.3342 165.791 38.6713 165.802 38.0185 165.977C37.3656 166.152 36.7043 166.436 36.0414 166.819C34.974 167.435 34.3496 168.324 34.1759 169.486C34.0071 170.646 34.2828 171.855 35.0136 173.121C35.5215 174 36.0566 174.747 36.6119 175.371C37.1673 175.995 37.8283 176.533 38.5699 176.984C39.3143 177.441 40.2078 177.817 41.2385 178.128C42.251 178.43 43.4659 178.699 44.886 178.941C44.937 178.951 44.9929 178.958 45.046 178.96C46.3068 179.073 47.4086 179.225 48.359 179.419C49.3325 179.619 50.2093 179.889 50.995 180.236C51.7808 180.584 52.5118 181.029 53.1834 181.573C53.855 182.117 54.5119 182.793 55.1668 183.601C55.8217 184.409 56.4963 185.375 57.1948 186.483C57.6085 187.144 58.0597 187.88 58.535 188.681C59.095 189.628 58.7833 190.844 57.8328 191.393L51.17 195.24C50.2634 195.763 49.096 195.486 48.5245 194.597C47.953 193.709 47.4066 192.943 46.8833 192.306C46.071 191.316 45.1983 190.536 44.2646 189.954C43.3308 189.373 42.2883 188.951 41.1286 188.676C39.9689 188.401 38.588 188.182 36.986 188.018C33.7785 187.55 31.077 186.653 28.8789 185.323C26.6857 183.989 24.908 182.148 23.5593 179.812C22.2106 177.476 21.5101 175.385 21.2801 173.23L21.2752 173.233Z" fill="#5876EE"/>
</svg>
